<?xml version="1.0" encoding="UTF-8" standalone="no"?>
<!-- Created with Inkscape (http://www.inkscape.org/) -->

<svg
   width="512"
   height="512"
   viewBox="0 0 135.46666 135.46667"
   version="1.1"
   id="svg1"
   inkscape:version="1.3.2 (091e20e, 2023-11-25)"
   sodipodi:docname="logo.svg"
   inkscape:export-filename="logo-white.png"
   inkscape:export-xdpi="96"
   inkscape:export-ydpi="96"
   xmlns:inkscape="http://www.inkscape.org/namespaces/inkscape"
   xmlns:sodipodi="http://sodipodi.sourceforge.net/DTD/sodipodi-0.dtd"
   xmlns="http://www.w3.org/2000/svg"
   xmlns:svg="http://www.w3.org/2000/svg">
  <sodipodi:namedview
     id="namedview1"
     pagecolor="#ffffff"
     bordercolor="#000000"
     borderopacity="0.25"
     inkscape:showpageshadow="2"
     inkscape:pageopacity="0.0"
     inkscape:pagecheckerboard="0"
     inkscape:deskcolor="#d1d1d1"
     inkscape:document-units="px"
     showguides="false"
     inkscape:zoom="1"
     inkscape:cx="217.5"
     inkscape:cy="215"
     inkscape:window-width="2000"
     inkscape:window-height="1099"
     inkscape:window-x="1352"
     inkscape:window-y="25"
     inkscape:window-maximized="0"
     inkscape:current-layer="layer1"
     inkscape:export-bgcolor="#ffffffff" />
  <defs
     id="defs1" />
  <g
     inkscape:label="Layer 1"
     inkscape:groupmode="layer"
     id="layer1">
    <g
       id="g36"
       transform="matrix(1.3817024,0,0,1.3835,-28.718775,-17.222358)">
      <path
         sodipodi:type="star"
         style="fill:#df001f;fill-opacity:1;stroke:#000000;stroke-width:4.23333;stroke-linejoin:miter;stroke-dasharray:none;stroke-opacity:1"
         id="path1"
         inkscape:flatsided="false"
         sodipodi:sides="5"
         sodipodi:cx="48.153763"
         sodipodi:cy="43.80439"
         sodipodi:r1="35.760201"
         sodipodi:r2="39.296925"
         sodipodi:arg1="0.96525166"
         sodipodi:arg2="1.5935702"
         inkscape:rounded="0.23"
         inkscape:randomized="0"
         d="M 68.508826,73.206148 C 64.076874,76.274422 52.647908,83.213874 47.258897,83.091124 41.869887,82.968375 30.768741,75.515736 26.48109,72.248848 22.19344,68.98196 12.061883,60.256776 10.513329,55.093591 8.9647756,49.930405 12.622214,37.069596 14.404251,31.982274 16.186289,26.894953 21.35361,14.563039 25.785561,11.494765 30.217513,8.4264911 43.57908,7.9307127 48.96809,8.0534625 c 5.389011,0.1227499 18.714147,1.226393 23.001798,4.4932805 4.28765,3.266888 8.888115,15.821289 10.436668,20.984474 1.548554,5.163186 4.616621,18.177188 2.834583,23.264509 -1.782038,5.087322 -12.300362,13.342147 -16.732313,16.410422 z"
         inkscape:transform-center-x="3.2795853"
         inkscape:transform-center-y="-5.8411164"
         transform="matrix(-0.82644398,0.56301896,0.56301896,0.82644398,83.862054,5.1219548)" />
      <path
         style="fill:#f36582;fill-opacity:1;stroke:none;stroke-width:2.11667;stroke-linejoin:round;stroke-dasharray:none;stroke-opacity:1"
         d="m 29.934187,56.968499 c 0,0 18.813785,12.180052 27.408489,9.915698 8.594703,-2.264353 11.890631,-4.961505 16.557347,-9.915698 4.666715,-4.954192 -2.993417,-28.71811 -2.993417,-28.71811 l -23.266985,10.23336 z"
         id="path3"
         sodipodi:nodetypes="czzccc" />
      <path
         id="rect2"
         style="fill:#000000;fill-opacity:1;stroke-width:4.23333"
         d="m 103.79372,20.101727 -0.002,0.0011 -3e-4,4.18e-4 -10.093896,6.051188 -6.787936,-9.534498 -0.544404,15.759419 5.518861,4.030074 -9.14e-4,0.0013 5.519697,4.030684 14.845702,-5.316089 -11.14836,-3.563244 2.69117,-11.456925 z" />
      <path
         sodipodi:type="star"
         style="fill:none;fill-opacity:1;stroke:#000000;stroke-width:4.23333;stroke-linejoin:miter;stroke-dasharray:none;stroke-opacity:1"
         id="path4"
         inkscape:flatsided="false"
         sodipodi:sides="5"
         sodipodi:cx="48.153763"
         sodipodi:cy="43.80439"
         sodipodi:r1="35.760201"
         sodipodi:r2="39.296925"
         sodipodi:arg1="0.96525166"
         sodipodi:arg2="1.5935702"
         inkscape:rounded="0.23"
         inkscape:randomized="0"
         d="M 68.508826,73.206148 C 64.076874,76.274422 52.647908,83.213874 47.258897,83.091124 41.869887,82.968375 30.768741,75.515736 26.48109,72.248848 22.19344,68.98196 12.061883,60.256776 10.513329,55.093591 8.9647756,49.930405 12.622214,37.069596 14.404251,31.982274 16.186289,26.894953 21.35361,14.563039 25.785561,11.494765 30.217513,8.4264911 43.57908,7.9307127 48.96809,8.0534625 c 5.389011,0.1227499 18.714147,1.226393 23.001798,4.4932805 4.28765,3.266888 8.888115,15.821289 10.436668,20.984474 1.548554,5.163186 4.616621,18.177188 2.834583,23.264509 -1.782038,5.087322 -12.300362,13.342147 -16.732313,16.410422 z"
         inkscape:transform-center-x="3.2795853"
         inkscape:transform-center-y="-5.8411164"
         transform="matrix(-0.82644398,0.56301896,0.56301896,0.82644398,83.862054,5.1219548)" />
    </g>
  </g>
</svg>
